<?xml version="1.0" encoding="UTF-8" standalone="no"?>
<!DOCTYPE svg PUBLIC "-//W3C//DTD SVG 1.1//EN"
 "http://www.w3.org/Graphics/SVG/1.1/DTD/svg11.dtd">
<!-- Generated by graphviz version 2.26.3 (20100126.1600)
 -->
<!-- Title: G Pages: 1 -->
<svg width="170pt" height="352pt"
 viewBox="0.00 0.00 170.00 352.00" xmlns="http://www.w3.org/2000/svg" xmlns:xlink="http://www.w3.org/1999/xlink">
<g id="graph1" class="graph" transform="scale(1 1) rotate(0) translate(4 348)">
<title>G</title>
<polygon fill="white" stroke="white" points="-4,5 -4,-348 167,-348 167,5 -4,5"/>
<!-- X2 -->
<g id="node1" class="node"><title>X2</title>
<polygon fill="none" stroke="red" points="54,-344 2.13163e-14,-344 0,-308 54,-308 54,-344"/>
<text text-anchor="middle" x="27" y="-321.4" font-family="Arial" font-size="14.00">X2</text>
</g>
<!-- Z0_op -->
<g id="node4" class="node"><title>Z0_op</title>
<ellipse fill="none" stroke="black" cx="63" cy="-251" rx="27" ry="21.2132"/>
<text text-anchor="middle" x="63" y="-245.8" font-family="Arial" font-size="18.00"> x </text>
</g>
<!-- X2&#45;&gt;Z0_op -->
<g id="edge4" class="edge"><title>X2&#45;&gt;Z0_op</title>
<path fill="none" stroke="black" d="M35.7146,-307.845C39.7412,-299.456 44.6214,-289.289 49.135,-279.885"/>
<polygon fill="black" stroke="black" points="52.309,-281.361 53.4811,-270.831 45.9984,-278.332 52.309,-281.361"/>
</g>
<!-- X3 -->
<g id="node2" class="node"><title>X3</title>
<polygon fill="none" stroke="red" points="126,-344 72,-344 72,-308 126,-308 126,-344"/>
<text text-anchor="middle" x="99" y="-321.4" font-family="Arial" font-size="14.00">X3</text>
</g>
<!-- X3&#45;&gt;Z0_op -->
<g id="edge6" class="edge"><title>X3&#45;&gt;Z0_op</title>
<path fill="none" stroke="black" d="M90.2854,-307.845C86.2588,-299.456 81.3786,-289.289 76.865,-279.885"/>
<polygon fill="black" stroke="black" points="80.0016,-278.332 72.5189,-270.831 73.691,-281.361 80.0016,-278.332"/>
</g>
<!-- Z0 -->
<g id="node3" class="node"><title>Z0</title>
<polygon fill="none" stroke="blue" points="90,-194 36,-194 36,-158 90,-158 90,-194"/>
<text text-anchor="middle" x="63" y="-171.4" font-family="Arial" font-size="14.00">Z0</text>
</g>
<!-- Z1_op -->
<g id="node10" class="node"><title>Z1_op</title>
<ellipse fill="none" stroke="black" cx="99" cy="-101" rx="27" ry="21.2132"/>
<text text-anchor="middle" x="99" y="-95.8" font-family="Arial" font-size="18.00"> &#45; </text>
</g>
<!-- Z0&#45;&gt;Z1_op -->
<g id="edge10" class="edge"><title>Z0&#45;&gt;Z1_op</title>
<path fill="none" stroke="black" d="M71.7146,-157.845C75.7412,-149.456 80.6214,-139.289 85.135,-129.885"/>
<polygon fill="black" stroke="black" points="88.309,-131.361 89.4811,-120.831 81.9984,-128.332 88.309,-131.361"/>
</g>
<!-- Z0_op&#45;&gt;Z0 -->
<g id="edge2" class="edge"><title>Z0_op&#45;&gt;Z0</title>
<path fill="none" stroke="black" d="M63,-229.709C63,-221.792 63,-212.681 63,-204.238"/>
<polygon fill="black" stroke="black" points="66.5001,-204.042 63,-194.042 59.5001,-204.042 66.5001,-204.042"/>
</g>
<!-- X0 -->
<g id="node8" class="node"><title>X0</title>
<polygon fill="none" stroke="red" points="162,-194 108,-194 108,-158 162,-158 162,-194"/>
<text text-anchor="middle" x="135" y="-171.4" font-family="Arial" font-size="14.00">X0</text>
</g>
<!-- X0&#45;&gt;Z1_op -->
<g id="edge12" class="edge"><title>X0&#45;&gt;Z1_op</title>
<path fill="none" stroke="black" d="M126.285,-157.845C122.259,-149.456 117.379,-139.289 112.865,-129.885"/>
<polygon fill="black" stroke="black" points="116.002,-128.332 108.519,-120.831 109.691,-131.361 116.002,-128.332"/>
</g>
<!-- Z1 -->
<g id="node9" class="node"><title>Z1</title>
<polygon fill="none" stroke="blue" points="126,-40 72,-40 72,-4 126,-4 126,-40"/>
<polygon fill="none" stroke="blue" points="130,-44 68,-44 68,-1.77636e-14 130,-3.55271e-15 130,-44"/>
<text text-anchor="middle" x="99" y="-17.4" font-family="Arial" font-size="14.00">Z1</text>
</g>
<!-- Z1_op&#45;&gt;Z1 -->
<g id="edge8" class="edge"><title>Z1_op&#45;&gt;Z1</title>
<path fill="none" stroke="black" d="M99,-79.8294C99,-71.9661 99,-62.8576 99,-54.2285"/>
<polygon fill="black" stroke="black" points="102.5,-54.0567 99,-44.0568 95.5001,-54.0568 102.5,-54.0567"/>
</g>
</g>
</svg>
