<?xml version="1.0" encoding="UTF-8" standalone="no"?>
<!DOCTYPE svg PUBLIC "-//W3C//DTD SVG 1.1//EN"
 "http://www.w3.org/Graphics/SVG/1.1/DTD/svg11.dtd">
<!-- Generated by graphviz version 2.26.3 (20100126.1600)
 -->
<!-- Title: G Pages: 1 -->
<svg width="207pt" height="1098pt"
 viewBox="0.00 0.00 207.00 1098.00" xmlns="http://www.w3.org/2000/svg" xmlns:xlink="http://www.w3.org/1999/xlink">
<g id="graph1" class="graph" transform="scale(1 1) rotate(0) translate(4 1094)">
<title>G</title>
<polygon fill="white" stroke="white" points="-4,5 -4,-1094 204,-1094 204,5 -4,5"/>
<!-- X2 -->
<g id="node1" class="node"><title>X2</title>
<polygon fill="none" stroke="red" points="89,-1090 35,-1090 35,-1054 89,-1054 89,-1090"/>
<text text-anchor="middle" x="62" y="-1067.4" font-family="Arial" font-size="14.00">X2</text>
</g>
<!-- Z0_op -->
<g id="node4" class="node"><title>Z0_op</title>
<ellipse fill="none" stroke="black" cx="98" cy="-997" rx="27" ry="21.2132"/>
<text text-anchor="middle" x="98" y="-991.8" font-family="Arial" font-size="18.00"> x </text>
</g>
<!-- X2&#45;&gt;Z0_op -->
<g id="edge4" class="edge"><title>X2&#45;&gt;Z0_op</title>
<path fill="none" stroke="black" d="M70.7146,-1053.84C74.7412,-1045.46 79.6214,-1035.29 84.135,-1025.89"/>
<polygon fill="black" stroke="black" points="87.309,-1027.36 88.4811,-1016.83 80.9984,-1024.33 87.309,-1027.36"/>
</g>
<!-- X3 -->
<g id="node2" class="node"><title>X3</title>
<polygon fill="none" stroke="red" points="161,-1090 107,-1090 107,-1054 161,-1054 161,-1090"/>
<text text-anchor="middle" x="134" y="-1067.4" font-family="Arial" font-size="14.00">X3</text>
</g>
<!-- X3&#45;&gt;Z0_op -->
<g id="edge6" class="edge"><title>X3&#45;&gt;Z0_op</title>
<path fill="none" stroke="black" d="M125.285,-1053.84C121.259,-1045.46 116.379,-1035.29 111.865,-1025.89"/>
<polygon fill="black" stroke="black" points="115.002,-1024.33 107.519,-1016.83 108.691,-1027.36 115.002,-1024.33"/>
</g>
<!-- Z0 -->
<g id="node3" class="node"><title>Z0</title>
<polygon fill="none" stroke="blue" points="126,-940 72,-940 72,-904 126,-904 126,-940"/>
<text text-anchor="middle" x="99" y="-917.4" font-family="Arial" font-size="14.00">Z0</text>
</g>
<!-- Z1_op -->
<g id="node10" class="node"><title>Z1_op</title>
<ellipse fill="none" stroke="black" cx="90" cy="-847" rx="27" ry="21.2132"/>
<text text-anchor="middle" x="90" y="-841.8" font-family="Arial" font-size="18.00"> &#45; </text>
</g>
<!-- Z0&#45;&gt;Z1_op -->
<g id="edge10" class="edge"><title>Z0&#45;&gt;Z1_op</title>
<path fill="none" stroke="black" d="M96.8214,-903.845C95.894,-896.117 94.7856,-886.88 93.7346,-878.122"/>
<polygon fill="black" stroke="black" points="97.2081,-877.69 92.5415,-868.179 90.2579,-878.525 97.2081,-877.69"/>
</g>
<!-- Z3_op -->
<g id="node19" class="node"><title>Z3_op</title>
<ellipse fill="none" stroke="black" cx="167" cy="-847" rx="27" ry="21.2132"/>
<text text-anchor="middle" x="167" y="-841.8" font-family="Arial" font-size="18.00"> x </text>
</g>
<!-- Z0&#45;&gt;Z3_op -->
<g id="edge18" class="edge"><title>Z0&#45;&gt;Z3_op</title>
<path fill="none" stroke="black" d="M115.461,-903.845C124.168,-894.241 134.99,-882.306 144.465,-871.855"/>
<polygon fill="black" stroke="black" points="147.267,-873.975 151.391,-864.215 142.082,-869.273 147.267,-873.975"/>
</g>
<!-- Z0_op&#45;&gt;Z0 -->
<g id="edge2" class="edge"><title>Z0_op&#45;&gt;Z0</title>
<path fill="none" stroke="black" d="M98.2839,-975.709C98.3894,-967.792 98.5109,-958.681 98.6235,-950.238"/>
<polygon fill="black" stroke="black" points="102.126,-950.088 98.7594,-940.042 95.1263,-949.994 102.126,-950.088"/>
</g>
<!-- X0 -->
<g id="node8" class="node"><title>X0</title>
<polygon fill="none" stroke="red" points="54,-940 2.13163e-14,-940 0,-904 54,-904 54,-940"/>
<text text-anchor="middle" x="27" y="-917.4" font-family="Arial" font-size="14.00">X0</text>
</g>
<!-- X0&#45;&gt;Z1_op -->
<g id="edge12" class="edge"><title>X0&#45;&gt;Z1_op</title>
<path fill="none" stroke="black" d="M42.2505,-903.845C50.1238,-894.472 59.8621,-882.878 68.4865,-872.611"/>
<polygon fill="black" stroke="black" points="71.3553,-874.638 75.1073,-864.729 65.9954,-870.135 71.3553,-874.638"/>
</g>
<!-- Z9_op -->
<g id="node44" class="node"><title>Z9_op</title>
<ellipse fill="none" stroke="black" cx="55" cy="-251" rx="27" ry="21.2132"/>
<text text-anchor="middle" x="55" y="-245.8" font-family="Arial" font-size="18.00"> x </text>
</g>
<!-- X0&#45;&gt;Z9_op -->
<g id="edge44" class="edge"><title>X0&#45;&gt;Z9_op</title>
<path fill="none" stroke="black" d="M27,-903.981C27,-875.229 27,-817.194 27,-768 27,-768 27,-768 27,-398 27,-357.098 37.59,-310.908 45.7444,-281.403"/>
<polygon fill="black" stroke="black" points="49.1352,-282.275 48.5059,-271.698 42.4025,-280.359 49.1352,-282.275"/>
</g>
<!-- Z1 -->
<g id="node9" class="node"><title>Z1</title>
<polygon fill="none" stroke="blue" points="117,-786 63,-786 63,-750 117,-750 117,-786"/>
<polygon fill="none" stroke="blue" points="121,-790 59,-790 59,-746 121,-746 121,-790"/>
<text text-anchor="middle" x="90" y="-763.4" font-family="Arial" font-size="14.00">Z1</text>
</g>
<!-- Z1_op&#45;&gt;Z1 -->
<g id="edge8" class="edge"><title>Z1_op&#45;&gt;Z1</title>
<path fill="none" stroke="black" d="M90,-825.829C90,-817.966 90,-808.858 90,-800.229"/>
<polygon fill="black" stroke="black" points="93.5001,-800.057 90,-790.057 86.5001,-800.057 93.5001,-800.057"/>
</g>
<!-- X1 -->
<g id="node14" class="node"><title>X1</title>
<polygon fill="none" stroke="red" points="154,-194 100,-194 100,-158 154,-158 154,-194"/>
<text text-anchor="middle" x="127" y="-171.4" font-family="Arial" font-size="14.00">X1</text>
</g>
<!-- Z10_op -->
<g id="node49" class="node"><title>Z10_op</title>
<ellipse fill="none" stroke="black" cx="91" cy="-101" rx="27" ry="21.2132"/>
<text text-anchor="middle" x="91" y="-95.8" font-family="Arial" font-size="18.00"> + </text>
</g>
<!-- X1&#45;&gt;Z10_op -->
<g id="edge50" class="edge"><title>X1&#45;&gt;Z10_op</title>
<path fill="none" stroke="black" d="M118.285,-157.845C114.259,-149.456 109.379,-139.289 104.865,-129.885"/>
<polygon fill="black" stroke="black" points="108.002,-128.332 100.519,-120.831 101.691,-131.361 108.002,-128.332"/>
</g>
<!-- Z2 -->
<g id="node15" class="node"><title>Z2</title>
<polygon fill="none" stroke="blue" points="198,-940 144,-940 144,-904 198,-904 198,-940"/>
<text text-anchor="middle" x="171" y="-917.4" font-family="Arial" font-size="14.00">Z2</text>
</g>
<!-- Z2&#45;&gt;Z3_op -->
<g id="edge20" class="edge"><title>Z2&#45;&gt;Z3_op</title>
<path fill="none" stroke="black" d="M170.032,-903.845C169.624,-896.201 169.138,-887.081 168.675,-878.407"/>
<polygon fill="black" stroke="black" points="172.157,-877.978 168.13,-868.179 165.167,-878.351 172.157,-877.978"/>
</g>
<!-- Z2_0 -->
<g id="node16" class="node"><title>Z2_0</title>
<ellipse fill="none" stroke="blue" cx="171" cy="-997" rx="28.1745" ry="18"/>
<text text-anchor="middle" x="171" y="-992.4" font-family="Arial" font-size="14.00">2 (I)</text>
</g>
<!-- Z2_0&#45;&gt;Z2 -->
<g id="edge14" class="edge"><title>Z2_0&#45;&gt;Z2</title>
<path fill="none" stroke="blue" stroke-dasharray="1,5" d="M171,-978.845C171,-970.34 171,-960.008 171,-950.496"/>
<polygon fill="blue" stroke="blue" points="174.5,-950.248 171,-940.248 167.5,-950.248 174.5,-950.248"/>
</g>
<!-- Z3 -->
<g id="node18" class="node"><title>Z3</title>
<polygon fill="none" stroke="blue" points="194,-786 140,-786 140,-750 194,-750 194,-786"/>
<text text-anchor="middle" x="167" y="-763.4" font-family="Arial" font-size="14.00">Z3</text>
</g>
<!-- Z4_op -->
<g id="node24" class="node"><title>Z4_op</title>
<ellipse fill="none" stroke="black" cx="167" cy="-692" rx="27" ry="18"/>
<text text-anchor="middle" x="167" y="-687.4" font-family="Arial" font-size="14.00">exp</text>
</g>
<!-- Z3&#45;&gt;Z4_op -->
<g id="edge24" class="edge"><title>Z3&#45;&gt;Z4_op</title>
<path fill="none" stroke="black" d="M167,-749.989C167,-741.157 167,-730.31 167,-720.396"/>
<polygon fill="black" stroke="black" points="170.5,-720.145 167,-710.145 163.5,-720.145 170.5,-720.145"/>
</g>
<!-- Z3_op&#45;&gt;Z3 -->
<g id="edge16" class="edge"><title>Z3_op&#45;&gt;Z3</title>
<path fill="none" stroke="black" d="M167,-825.829C167,-816.7 167,-805.892 167,-796.105"/>
<polygon fill="black" stroke="black" points="170.5,-796.013 167,-786.013 163.5,-796.013 170.5,-796.013"/>
</g>
<!-- Z4 -->
<g id="node23" class="node"><title>Z4</title>
<polygon fill="none" stroke="blue" points="192,-638 138,-638 138,-602 192,-602 192,-638"/>
<text text-anchor="middle" x="165" y="-615.4" font-family="Arial" font-size="14.00">Z4</text>
</g>
<!-- Z6_op -->
<g id="node31" class="node"><title>Z6_op</title>
<ellipse fill="none" stroke="black" cx="156" cy="-545" rx="27" ry="21.2132"/>
<text text-anchor="middle" x="156" y="-539.8" font-family="Arial" font-size="18.00"> + </text>
</g>
<!-- Z4&#45;&gt;Z6_op -->
<g id="edge30" class="edge"><title>Z4&#45;&gt;Z6_op</title>
<path fill="none" stroke="black" d="M162.821,-601.845C161.894,-594.117 160.786,-584.88 159.735,-576.122"/>
<polygon fill="black" stroke="black" points="163.208,-575.69 158.541,-566.179 156.258,-576.525 163.208,-575.69"/>
</g>
<!-- Z4_op&#45;&gt;Z4 -->
<g id="edge22" class="edge"><title>Z4_op&#45;&gt;Z4</title>
<path fill="none" stroke="black" d="M166.495,-673.831C166.281,-666.131 166.027,-656.974 165.789,-648.417"/>
<polygon fill="black" stroke="black" points="169.288,-648.312 165.511,-638.413 162.291,-648.507 169.288,-648.312"/>
</g>
<!-- Z5 -->
<g id="node27" class="node"><title>Z5</title>
<polygon fill="none" stroke="blue" points="118,-638 64,-638 64,-602 118,-602 118,-638"/>
<text text-anchor="middle" x="91" y="-615.4" font-family="Arial" font-size="14.00">Z5</text>
</g>
<!-- Z5&#45;&gt;Z6_op -->
<g id="edge32" class="edge"><title>Z5&#45;&gt;Z6_op</title>
<path fill="none" stroke="black" d="M106.735,-601.845C114.998,-592.31 125.253,-580.477 134.264,-570.081"/>
<polygon fill="black" stroke="black" points="136.953,-572.321 140.858,-562.472 131.664,-567.736 136.953,-572.321"/>
</g>
<!-- Z5_0 -->
<g id="node28" class="node"><title>Z5_0</title>
<ellipse fill="none" stroke="blue" cx="90" cy="-692" rx="32.1994" ry="18"/>
<text text-anchor="middle" x="90" y="-687.4" font-family="Arial" font-size="14.00">3 (D)</text>
</g>
<!-- Z5_0&#45;&gt;Z5 -->
<g id="edge26" class="edge"><title>Z5_0&#45;&gt;Z5</title>
<path fill="none" stroke="blue" stroke-dasharray="1,5" d="M90.2523,-673.831C90.3593,-666.131 90.4865,-656.974 90.6053,-648.417"/>
<polygon fill="blue" stroke="blue" points="94.1049,-648.461 90.7443,-638.413 87.1056,-648.364 94.1049,-648.461"/>
</g>
<!-- Z6 -->
<g id="node30" class="node"><title>Z6</title>
<polygon fill="none" stroke="blue" points="182,-488 128,-488 128,-452 182,-452 182,-488"/>
<text text-anchor="middle" x="155" y="-465.4" font-family="Arial" font-size="14.00">Z6</text>
</g>
<!-- Z8_op -->
<g id="node39" class="node"><title>Z8_op</title>
<ellipse fill="none" stroke="black" cx="84" cy="-398" rx="28.8453" ry="18"/>
<text text-anchor="middle" x="84" y="-393.4" font-family="Arial" font-size="14.00">pow</text>
</g>
<!-- Z6&#45;&gt;Z8_op -->
<g id="edge38" class="edge"><title>Z6&#45;&gt;Z8_op</title>
<path fill="none" stroke="black" d="M137.084,-451.831C127.787,-442.403 116.337,-430.793 106.454,-420.771"/>
<polygon fill="black" stroke="black" points="108.778,-418.142 99.264,-413.479 103.793,-423.057 108.778,-418.142"/>
</g>
<!-- Z6_op&#45;&gt;Z6 -->
<g id="edge28" class="edge"><title>Z6_op&#45;&gt;Z6</title>
<path fill="none" stroke="black" d="M155.716,-523.709C155.611,-515.792 155.489,-506.681 155.377,-498.238"/>
<polygon fill="black" stroke="black" points="158.874,-497.994 155.241,-488.042 151.874,-498.088 158.874,-497.994"/>
</g>
<!-- Z7 -->
<g id="node35" class="node"><title>Z7</title>
<polygon fill="none" stroke="blue" points="110,-488 56,-488 56,-452 110,-452 110,-488"/>
<text text-anchor="middle" x="83" y="-465.4" font-family="Arial" font-size="14.00">Z7</text>
</g>
<!-- Z7&#45;&gt;Z8_op -->
<g id="edge40" class="edge"><title>Z7&#45;&gt;Z8_op</title>
<path fill="none" stroke="black" stroke-dasharray="1,5" d="M83.2523,-451.831C83.3593,-444.131 83.4865,-434.974 83.6053,-426.417"/>
<polygon fill="black" stroke="black" points="87.1049,-426.461 83.7443,-416.413 80.1056,-426.364 87.1049,-426.461"/>
</g>
<!-- Z7_0 -->
<g id="node36" class="node"><title>Z7_0</title>
<ellipse fill="none" stroke="blue" cx="83" cy="-545" rx="28.1745" ry="18"/>
<text text-anchor="middle" x="83" y="-540.4" font-family="Arial" font-size="14.00">3 (I)</text>
</g>
<!-- Z7_0&#45;&gt;Z7 -->
<g id="edge34" class="edge"><title>Z7_0&#45;&gt;Z7</title>
<path fill="none" stroke="blue" stroke-dasharray="1,5" d="M83,-526.845C83,-518.34 83,-508.008 83,-498.496"/>
<polygon fill="blue" stroke="blue" points="86.5001,-498.248 83,-488.248 79.5001,-498.248 86.5001,-498.248"/>
</g>
<!-- Z8 -->
<g id="node38" class="node"><title>Z8</title>
<polygon fill="none" stroke="blue" points="110,-344 56,-344 56,-308 110,-308 110,-344"/>
<text text-anchor="middle" x="83" y="-321.4" font-family="Arial" font-size="14.00">Z8</text>
</g>
<!-- Z8&#45;&gt;Z9_op -->
<g id="edge46" class="edge"><title>Z8&#45;&gt;Z9_op</title>
<path fill="none" stroke="black" d="M76.222,-307.845C73.203,-299.758 69.567,-290.019 66.1643,-280.904"/>
<polygon fill="black" stroke="black" points="69.3803,-279.511 62.6037,-271.367 62.8224,-281.96 69.3803,-279.511"/>
</g>
<!-- Z8_op&#45;&gt;Z8 -->
<g id="edge36" class="edge"><title>Z8_op&#45;&gt;Z8</title>
<path fill="none" stroke="black" d="M83.7477,-379.831C83.6407,-372.131 83.5135,-362.974 83.3947,-354.417"/>
<polygon fill="black" stroke="black" points="86.8944,-354.364 83.2557,-344.413 79.8951,-354.461 86.8944,-354.364"/>
</g>
<!-- Z9 -->
<g id="node43" class="node"><title>Z9</title>
<polygon fill="none" stroke="blue" points="82,-194 28,-194 28,-158 82,-158 82,-194"/>
<text text-anchor="middle" x="55" y="-171.4" font-family="Arial" font-size="14.00">Z9</text>
</g>
<!-- Z9&#45;&gt;Z10_op -->
<g id="edge52" class="edge"><title>Z9&#45;&gt;Z10_op</title>
<path fill="none" stroke="black" d="M63.7146,-157.845C67.7412,-149.456 72.6214,-139.289 77.135,-129.885"/>
<polygon fill="black" stroke="black" points="80.309,-131.361 81.4811,-120.831 73.9984,-128.332 80.309,-131.361"/>
</g>
<!-- Z9_op&#45;&gt;Z9 -->
<g id="edge42" class="edge"><title>Z9_op&#45;&gt;Z9</title>
<path fill="none" stroke="black" d="M55,-229.709C55,-221.792 55,-212.681 55,-204.238"/>
<polygon fill="black" stroke="black" points="58.5001,-204.042 55,-194.042 51.5001,-204.042 58.5001,-204.042"/>
</g>
<!-- Z10 -->
<g id="node48" class="node"><title>Z10</title>
<polygon fill="none" stroke="blue" points="118,-40 64,-40 64,-4 118,-4 118,-40"/>
<polygon fill="none" stroke="blue" points="122,-44 60,-44 60,-1.77636e-14 122,-3.55271e-15 122,-44"/>
<text text-anchor="middle" x="91" y="-17.4" font-family="Arial" font-size="14.00">Z10</text>
</g>
<!-- Z10_op&#45;&gt;Z10 -->
<g id="edge48" class="edge"><title>Z10_op&#45;&gt;Z10</title>
<path fill="none" stroke="black" d="M91,-79.8294C91,-71.9661 91,-62.8576 91,-54.2285"/>
<polygon fill="black" stroke="black" points="94.5001,-54.0567 91,-44.0568 87.5001,-54.0568 94.5001,-54.0567"/>
</g>
</g>
</svg>
